<svg width="16" height="16" viewBox="0 0 16 16" fill="none" xmlns="http://www.w3.org/2000/svg">
<path d="M10.9077 8.22842L10.5112 8.17805C9.1059 7.99858 8.00071 6.89127 7.82266 5.48602L7.77514 5.11147C7.69781 4.49787 7.09344 4.08431 6.45714 4.08431C5.82793 4.08431 5.22497 4.48085 5.1441 5.09232L5.09374 5.48885C4.91427 6.8941 3.80695 7.99929 2.4017 8.17734L2.02716 8.22487C1.40008 8.30645 1 8.90657 1 9.54287C1 10.1792 1.3788 10.7793 2.00801 10.8559L2.40454 10.9063C3.80979 11.0857 4.91498 12.1931 5.09303 13.5983L5.14056 13.9728C5.21788 14.6113 5.82226 15 6.45856 15C7.08776 15 7.69852 14.5715 7.77159 13.992L7.82195 13.5955C8.00142 12.1902 9.10874 11.085 10.514 10.907L10.8885 10.8594C11.5192 10.7793 11.9157 10.1777 11.9157 9.54145C11.9157 8.90515 11.5199 8.30503 10.9077 8.22842Z" fill="#8270DB"/>
<path d="M14.4956 3.07205L14.2977 3.04651C13.5955 2.95643 13.0422 2.40312 12.9535 1.70085L12.9301 1.51358C12.8911 1.20643 12.5889 1 12.2711 1C11.9561 1 11.6553 1.19791 11.6142 1.50436L11.5887 1.70227C11.4986 2.40454 10.9453 2.95784 10.243 3.04651L10.0557 3.06992C9.7422 3.11107 9.54216 3.41113 9.54216 3.72892C9.54216 4.04672 9.73156 4.34749 10.0465 4.38579L10.2444 4.41133C10.9467 4.50142 11.5 5.05472 11.5887 5.75699L11.6121 5.94427C11.6504 6.26348 11.9533 6.45785 12.2711 6.45785C12.586 6.45785 12.8911 6.24362 12.9279 5.95349L12.9535 5.75558C13.0436 5.05331 13.5969 4.5 14.2991 4.41133L14.4864 4.38792C14.8021 4.3482 15 4.04672 15 3.72892C15 3.41113 14.8021 3.11107 14.4956 3.07205Z" fill="#8270DB"/>
</svg>
