<svg width="24" height="24" viewBox="0 0 24 24" fill="none" xmlns="http://www.w3.org/2000/svg">
<g clip-path="url(#clip0_7588_18430)">
<path d="M18.75 0H5.25C2.35051 0 0 2.35051 0 5.25V18.75C0 21.6495 2.35051 24 5.25 24H18.75C21.6495 24 24 21.6495 24 18.75V5.25C24 2.35051 21.6495 0 18.75 0Z" fill="black"/>
<path d="M18.0075 6.84956C17.8829 6.78677 17.7616 6.71794 17.6441 6.64333C17.3023 6.423 16.9889 6.1634 16.7107 5.8701C16.0146 5.09353 15.7547 4.30568 15.6589 3.7541H15.6627C15.5827 3.29623 15.6158 3 15.6208 3H12.4504V14.9537C12.4504 15.1141 12.4504 15.2728 12.4434 15.4295C12.4434 15.449 12.4415 15.467 12.4404 15.488C12.4404 15.4966 12.4404 15.5056 12.4384 15.5146C12.4384 15.5169 12.4384 15.5191 12.4384 15.5214C12.405 15.9503 12.264 16.3646 12.0278 16.7279C11.7916 17.0912 11.4675 17.3923 11.084 17.6048C10.6842 17.8265 10.2321 17.9428 9.77216 17.9422C8.295 17.9422 7.09781 16.7678 7.09781 15.3174C7.09781 13.867 8.295 12.6925 9.77216 12.6925C10.0518 12.6923 10.3297 12.7352 10.5956 12.8196L10.5994 9.67204C9.79232 9.5704 8.97237 9.63293 8.19132 9.85571C7.41025 10.0785 6.68503 10.4567 6.06137 10.9665C5.51493 11.4294 5.05552 11.9818 4.70383 12.5988C4.56998 12.8238 4.06503 13.7278 4.00389 15.1951C3.96544 16.028 4.22195 16.8908 4.34423 17.2474V17.2549C4.42116 17.4649 4.71921 18.1815 5.20494 18.7856C5.5966 19.2702 6.05933 19.6958 6.57826 20.0489V20.0414L6.58595 20.0489C8.1208 21.0658 9.82256 20.9991 9.82256 20.9991C10.1171 20.9875 11.104 20.9991 12.2246 20.4812C13.4676 19.9071 14.1752 19.0518 14.1752 19.0518C14.6273 18.5408 14.9867 17.9583 15.2382 17.3295C15.5251 16.5942 15.6208 15.7122 15.6208 15.3598V9.01808C15.6593 9.04057 16.1715 9.37092 16.1715 9.37092C16.1715 9.37092 16.9095 9.83215 18.061 10.1325C18.887 10.3463 20 10.3912 20 10.3912V7.3224C19.61 7.36364 18.8182 7.24367 18.0075 6.84956Z" fill="white"/>
</g>
<defs>
<clipPath id="clip0_7588_18430">
<rect width="24" height="24" fill="white"/>
</clipPath>
</defs>
</svg>
